<svg width="379" height="244" viewBox="0 0 379 244" fill="none" xmlns="http://www.w3.org/2000/svg">
<g clip-path="url(#clip0)">
<path d="M60.0591 243.284C86.5949 243.284 108.106 239.833 108.106 235.575C108.106 231.318 86.5949 227.866 60.0591 227.866C33.5233 227.866 12.0118 231.318 12.0118 235.575C12.0118 239.833 33.5233 243.284 60.0591 243.284Z" fill="#F2F2F2"/>
<path d="M63.824 238.802C90.3598 238.802 111.871 235.351 111.871 231.093C111.871 226.836 90.3598 223.384 63.824 223.384C37.2882 223.384 15.7767 226.836 15.7767 231.093C15.7767 235.351 37.2882 238.802 63.824 238.802Z" stroke="#3F3D56" stroke-miterlimit="10"/>
<path d="M165.534 9.86044H37.4124C32.8894 9.86044 29.2228 13.5271 29.2228 18.0501V87.7257C29.2228 92.2487 32.8894 95.9153 37.4124 95.9153H165.534C170.057 95.9153 173.723 92.2487 173.723 87.7257V18.0501C173.723 13.5271 170.057 9.86044 165.534 9.86044Z" fill="#6C63FF"/>
<path d="M355.213 78.7044H227.092C222.569 78.7044 218.902 82.371 218.902 86.894V156.57C218.902 161.093 222.569 164.759 227.092 164.759H355.213C359.736 164.759 363.403 161.093 363.403 156.57V86.894C363.403 82.371 359.736 78.7044 355.213 78.7044Z" fill="#F2F2F2"/>
<path d="M154.418 0.179291H26.297C21.774 0.179291 18.1074 3.84591 18.1074 8.36892V78.0445C18.1074 82.5675 21.774 86.2342 26.297 86.2342H154.418C158.941 86.2342 162.608 82.5675 162.608 78.0445V8.36892C162.608 3.84591 158.941 0.179291 154.418 0.179291Z" stroke="#3F3D56" stroke-miterlimit="10"/>
<path d="M344.098 69.0232H215.976C211.453 69.0232 207.787 72.6898 207.787 77.2128V146.888C207.787 151.411 211.453 155.078 215.976 155.078H344.098C348.621 155.078 352.287 151.411 352.287 146.888V77.2128C352.287 72.6898 348.621 69.0232 344.098 69.0232Z" stroke="#3F3D56" stroke-miterlimit="10"/>
<path d="M344.177 25.6219C342.648 25.7082 341.174 26.2186 339.919 27.0958C338.665 27.973 337.679 29.1824 337.073 30.5883C335.297 34.8817 337.584 39.9249 341.017 43.0556C344.45 46.1864 348.86 47.9759 352.867 50.3281C358.249 53.4875 363.085 57.8732 365.778 63.503C368.471 69.1328 368.757 76.1065 365.592 81.4849C362.654 86.4769 357.312 89.4646 352.217 92.2201" stroke="#3F3D56" stroke-miterlimit="10"/>
<path d="M348.702 29.0435C352.167 29.0435 354.976 27.679 354.976 25.9957C354.976 24.3125 352.167 22.948 348.702 22.948C345.236 22.948 342.427 24.3125 342.427 25.9957C342.427 27.679 345.236 29.0435 348.702 29.0435Z" fill="#6C63FF"/>
<path d="M353.721 49.123C357.187 49.123 359.996 47.7585 359.996 46.0752C359.996 44.392 357.187 43.0274 353.721 43.0274C350.256 43.0274 347.447 44.392 347.447 46.0752C347.447 47.7585 350.256 49.123 353.721 49.123Z" fill="#6C63FF"/>
<path d="M342.247 52.3501C345.713 52.3501 348.522 50.9855 348.522 49.3023C348.522 47.619 345.713 46.2545 342.247 46.2545C338.782 46.2545 335.973 47.619 335.973 49.3023C335.973 50.9855 338.782 52.3501 342.247 52.3501Z" fill="#6C63FF"/>
<path d="M360.175 69.2024C363.641 69.2024 366.45 67.8379 366.45 66.1547C366.45 64.4714 363.641 63.1069 360.175 63.1069C356.71 63.1069 353.901 64.4714 353.901 66.1547C353.901 67.8379 356.71 69.2024 360.175 69.2024Z" fill="#6C63FF"/>
<path d="M372.725 69.2024C376.191 69.2024 379 67.8379 379 66.1547C379 64.4714 376.191 63.1069 372.725 63.1069C369.26 63.1069 366.45 64.4714 366.45 66.1547C366.45 67.8379 369.26 69.2024 372.725 69.2024Z" fill="#6C63FF"/>
<path d="M8.20413 163.31C6.67569 163.396 5.20152 163.906 3.9469 164.784C2.69229 165.661 1.70683 166.87 1.10103 168.276C-0.675102 172.569 1.6118 177.613 5.04486 180.743C8.47791 183.874 12.8879 185.664 16.8947 188.016C22.2766 191.175 27.1126 195.561 29.8054 201.191C32.4983 206.821 32.7847 213.794 29.6194 219.173C26.6814 224.165 21.3393 227.152 16.2442 229.908" stroke="#3F3D56" stroke-miterlimit="10"/>
<path d="M12.7289 166.731C16.1944 166.731 19.0038 165.367 19.0038 163.684C19.0038 162 16.1944 160.636 12.7289 160.636C9.26344 160.636 6.4541 162 6.4541 163.684C6.4541 165.367 9.26344 166.731 12.7289 166.731Z" fill="#6C63FF"/>
<path d="M17.7488 186.811C21.2143 186.811 24.0237 185.446 24.0237 183.763C24.0237 182.08 21.2143 180.715 17.7488 180.715C14.2833 180.715 11.474 182.08 11.474 183.763C11.474 185.446 14.2833 186.811 17.7488 186.811Z" fill="#6C63FF"/>
<path d="M6.27483 190.038C9.74033 190.038 12.5497 188.673 12.5497 186.99C12.5497 185.307 9.74033 183.942 6.27483 183.942C2.80934 183.942 0 185.307 0 186.99C0 188.673 2.80934 190.038 6.27483 190.038Z" fill="#6C63FF"/>
<path d="M24.2029 206.89C27.6684 206.89 30.4778 205.526 30.4778 203.842C30.4778 202.159 27.6684 200.795 24.2029 200.795C20.7374 200.795 17.9281 202.159 17.9281 203.842C17.9281 205.526 20.7374 206.89 24.2029 206.89Z" fill="#6C63FF"/>
<path d="M36.7526 206.89C40.2181 206.89 43.0274 205.526 43.0274 203.842C43.0274 202.159 40.2181 200.795 36.7526 200.795C33.2871 200.795 30.4778 202.159 30.4778 203.842C30.4778 205.526 33.2871 206.89 36.7526 206.89Z" fill="#6C63FF"/>
<path d="M91.7919 97.3496C91.7919 97.3496 92.509 102.728 90.7162 104.879C88.9234 107.031 86.0549 121.373 86.0549 121.373V129.979C86.0549 129.979 97.1703 113.843 99.3216 107.389C101.473 100.935 99.3216 95.9153 99.3216 95.9153L91.7919 97.3496Z" fill="#FFC1C7"/>
<path d="M90.7162 70.816L90.8677 70.9865C92.7193 73.0688 94.1725 75.4737 95.1548 78.0813C97.5087 84.332 102.568 99.7402 100.756 101.294C98.246 103.445 91.0747 104.879 90.7162 104.521C90.3576 104.162 83.1864 81.9314 83.1864 81.9314L90.7162 70.816Z" fill="#3F3D56"/>
<path d="M79.0629 223.205C79.0629 223.205 87.6684 224.998 88.0269 223.205C88.2562 222.09 88.6173 221.007 89.1026 219.978C89.1026 219.978 96.9024 220.303 94.866 227.141C94.6618 227.815 94.216 228.389 93.6142 228.755C91.7567 229.892 87.3811 232.573 85.1585 233.962C83.4878 235.006 81.0875 234.226 79.374 233.392C78.76 233.091 78.2629 232.595 77.9607 231.982C77.6584 231.368 77.568 230.672 77.7036 230.002L79.0629 223.205Z" fill="#3F3D56"/>
<path d="M54.3222 224.281C54.3222 224.281 45.7167 226.073 45.3581 224.281C45.1288 223.166 44.7677 222.083 44.2824 221.053C44.2824 221.053 36.4977 221.378 38.5132 228.197C38.7203 228.884 39.1744 229.469 39.7879 229.841C41.6551 230.984 46.0107 233.653 48.2266 235.037C50.0561 236.181 52.7607 235.137 54.48 234.23C54.9576 233.981 55.3417 233.583 55.5748 233.098C55.8078 232.612 55.8774 232.064 55.7731 231.535L54.3222 224.281Z" fill="#3F3D56"/>
<path d="M43.5653 102.011C43.5653 102.011 42.8482 107.389 44.641 109.541C46.4338 111.692 49.3023 119.939 49.3023 119.939V128.544C49.3023 128.544 38.1869 118.505 36.0355 112.051C33.8841 105.597 36.0355 100.577 36.0355 100.577L43.5653 102.011Z" fill="#FFC1C7"/>
<path d="M68.6646 57.9078C73.6153 57.9078 77.6287 53.8944 77.6287 48.9437C77.6287 43.993 73.6153 39.9797 68.6646 39.9797C63.7139 39.9797 59.7006 43.993 59.7006 48.9437C59.7006 53.8944 63.7139 57.9078 68.6646 57.9078Z" fill="#FFC1C7"/>
<path d="M75.8358 52.5293C75.8358 52.5293 73.3259 64.0033 75.8358 65.4376C78.3458 66.8718 60.7762 65.4376 60.7762 65.4376C60.7762 65.4376 64.7204 55.7564 62.9276 52.5293C61.1348 49.3023 75.8358 52.5293 75.8358 52.5293Z" fill="#FFC1C7"/>
<path d="M84.4413 128.903C84.4413 128.903 87.6684 133.564 86.5927 147.907C85.517 162.249 84.4413 177.309 84.4413 177.309C84.4413 177.309 92.3297 222.488 89.8198 223.563C87.3098 224.639 79.0629 225.715 77.9872 224.639C76.9115 223.563 71.8917 181.612 71.8917 181.612L67.2304 147.19L60.0591 186.632C60.0591 186.632 56.1149 224.998 53.2465 226.791C51.1958 228.072 47.1296 227.155 44.9775 226.528C44.5739 226.412 44.221 226.163 43.9755 225.823C43.73 225.482 43.6062 225.069 43.624 224.649C43.8869 218.616 45.0671 194.804 47.868 180.177C51.0951 163.325 44.641 129.62 50.378 128.903C56.1149 128.186 84.4413 128.903 84.4413 128.903Z" fill="#2F2E41"/>
<path d="M59.342 64.0033C59.342 64.0033 60.7763 57.5492 66.1547 58.2663C71.5331 58.9835 75.1187 58.6249 76.1944 62.2105C77.2701 65.7961 88.7441 68.6646 88.7441 68.6646C88.7441 68.6646 91.6126 69.0232 91.254 73.6845C90.8955 78.3458 83.7242 95.5568 83.7242 95.5568C83.7242 95.5568 84.0828 109.899 85.8756 116.353C87.6684 122.807 87.6684 130.696 83.7242 132.489C79.7801 134.281 55.0393 140.736 49.3023 132.847C49.3023 132.847 46.0752 121.373 48.2266 116.712C50.378 112.051 47.868 93.764 47.868 93.764L41.0554 78.7044C41.0554 78.7044 43.2067 71.5331 49.3023 69.3818C52.9097 68.1253 56.2975 66.3104 59.342 64.0033Z" fill="#3F3D56"/>
<path d="M43.9238 75.4773L41.0553 78.7044C41.0553 78.7044 32.4499 99.8595 34.9598 102.011C37.4697 104.162 44.641 105.597 44.9995 105.238C45.3581 104.879 51.4536 86.5927 51.4536 86.5927L43.9238 75.4773Z" fill="#3F3D56"/>
<path d="M79.0629 43.5653C79.0629 43.5653 77.6286 44.641 77.2701 47.1509C76.9115 49.6608 74.7097 45.7208 74.1971 50.9179C73.6845 56.115 65.079 59.7006 61.8519 57.1906C58.6248 54.6807 53.2464 38.904 60.7762 36.394C68.306 33.8841 75.8358 34.2427 77.2701 36.7526C78.7043 39.2625 79.0629 43.5653 79.0629 43.5653Z" fill="#2F2E41"/>
<path opacity="0.1" d="M72.0457 50.9179C72.5583 45.7208 74.7602 49.6609 75.1187 47.1509C75.4773 44.641 76.9115 43.5653 76.9115 43.5653C76.9115 43.5653 76.553 39.2626 75.1187 36.7526C74.4325 35.5517 72.3489 34.8449 69.5394 34.7075C73.4154 34.53 76.4182 35.2617 77.2701 36.7526C78.7043 39.2626 79.0629 43.5653 79.0629 43.5653C79.0629 43.5653 77.6287 44.641 77.2701 47.1509C76.9115 49.6609 74.7097 45.7208 74.1971 50.9179C73.7625 55.3239 67.5124 58.5699 63.653 57.9271C67.331 57.4221 71.6855 54.5695 72.0457 50.9179Z" fill="black"/>
</g>
<defs>
<clipPath id="clip0">
<rect width="379" height="243.284" fill="white"/>
</clipPath>
</defs>
</svg>
